<svg width="87" height="58" fill="none" xmlns="http://www.w3.org/2000/svg"><path d="M41.434 14.869a7.194 7.194 0 0 1 9.202-.084l13.772 11.246a23.959 23.959 0 0 1 4.329 4.613c7.864 10.986.415 26.315-13.081 26.922L46 58l-8.79-.395c-13.716-.617-21.17-16.31-12.983-27.331a24.107 24.107 0 0 1 3.767-4.017l13.44-11.388Z" fill="#FF7B00"/><path d="m36 31.5 4.5 3-4.5.5M55.5 31.5l-4.5 3 4.5.5" stroke="#3F060D" stroke-width="2" stroke-linecap="round" stroke-linejoin="round"/><path d="M42 40v0a4 4 0 0 0 4 4v0a4 4 0 0 0 4-4v0" stroke="#3F060D" stroke-width="2" stroke-linecap="round"/><circle cx="62.5" cy="43.5" r="3.5" fill="#FF3B0D"/><circle cx="29.5" cy="43.5" r="3.5" fill="#FF3B0D"/><path d="M7.425 28.613c-3.3 1.905-3.3 6.668 0 8.573 3.3 1.905 7.424-.476 7.424-4.286 0-3.81-4.124-6.192-7.424-4.287Z" fill="#FF7B00"/><path d="M24 22.5c1.167-1 4.8-2.8 10-2 6.5 1 16 5 23.5 4 6-.8 9.833-4 11-5.5" stroke="#3F060D" stroke-width="10" stroke-linecap="round"/><path d="M32.632 7.698 30 19.846l33.5 3.23-4.559-16.184c-1.012-3.594-5.026-5.4-8.387-3.775l-1.966.95a6 6 0 0 1-4.312.353l-4.08-1.205a6 6 0 0 0-7.564 4.483Z" fill="#3F060D"/><mask id="mask0_14_948" style="mask-type:alpha" maskUnits="userSpaceOnUse" x="30" y="2" width="33" height="22"><path d="M32.632 7.698 30 19.846l6.003.393c2.657.173 5.288.63 7.848 1.361l1.168.334A33.154 33.154 0 0 0 63 22L58.9 6.966c-.988-3.621-5.021-5.457-8.4-3.823l-1.912.925a6 6 0 0 1-4.312.352l-4.08-1.205a6 6 0 0 0-7.564 4.483Z" fill="#B34F23"/></mask><g mask="url('#mask0_14_948')"><path d="m57.476 18.872 3.993-.63a6.238 6.238 0 0 1 2.997.261c2.768.95 3.337 4.614.987 6.358l-2.059 1.527a4.984 4.984 0 0 1-3.47.957l-19-1.916a7.508 7.508 0 0 1-2.037-.5l-10.21-4.085c-1.857-.743-2.005-3.316-.245-4.267a4.05 4.05 0 0 1 2.277-.472L41 17l8.553 1.71c2.61.523 5.293.577 7.923.162Z" fill="#B34F23"/></g></svg>