<svg width="91" height="56" fill="none" xmlns="http://www.w3.org/2000/svg"><path d="M45.434 12.869a7.194 7.194 0 0 1 9.202-.084l13.772 11.246a23.959 23.959 0 0 1 4.329 4.613c7.864 10.986.415 26.315-13.081 26.922L50 56l-8.79-.395c-13.716-.617-21.17-16.31-12.983-27.331a24.107 24.107 0 0 1 3.767-4.017l13.44-11.388Z" fill="#009DFF"/><path d="M54.166 42.816a2.12 2.12 0 0 1 .212-1.61l.79-1.367a.37.37 0 0 1 .506-.136l1.367.79c.488.28.843.744.989 1.288l.031.117a2 2 0 1 1-3.864 1.035l-.031-.117ZM32.413 42.816a2.121 2.121 0 0 0-.212-1.61l-.79-1.367a.37.37 0 0 0-.506-.136l-1.368.79a2.121 2.121 0 0 0-.988 1.288l-.031.117a2 2 0 0 0 3.864 1.035l.03-.117Z" fill="#0FF"/><path d="M32.646 32.475a2.883 2.883 0 0 1 5.707 0l.152 1.06a3.035 3.035 0 1 1-6.01 0l.151-1.06ZM54.354 32.475a2.883 2.883 0 0 0-5.707 0l-.152 1.06a3.035 3.035 0 1 0 6.01 0l-.151-1.06Z" fill="#3F060D"/><path d="M39 42.5v0a3.5 3.5 0 0 1 3.5-3.5h1a3.5 3.5 0 0 1 3.5 3.5v0" stroke="#3F060D" stroke-width="2" stroke-linecap="round"/><path d="M28 22.5c1.167-1 4.8-2.8 10-2 6.5 1 16 5 23.5 4 6-.8 9.833-4 11-5.5" stroke="#3F060D" stroke-width="10" stroke-linecap="round"/><path d="M36.632 7.698 34 19.846l33.5 3.23-4.559-16.184c-1.012-3.594-5.026-5.4-8.387-3.775l-1.966.95a6 6 0 0 1-4.312.353l-4.08-1.205a6 6 0 0 0-7.564 4.483Z" fill="#3F060D"/><mask id="mask0_9_581" style="mask-type:alpha" maskUnits="userSpaceOnUse" x="34" y="2" width="33" height="22"><path d="M36.632 7.698 34 19.846l6.003.393c2.657.173 5.288.63 7.848 1.361l1.168.334A33.154 33.154 0 0 0 67 22L62.9 6.966c-.988-3.621-5.021-5.457-8.4-3.823l-1.912.925a6 6 0 0 1-4.312.352l-4.08-1.205a6 6 0 0 0-7.564 4.483Z" fill="#B34F23"/></mask><g mask="url('#mask0_9_581')"><path d="m61.476 18.872 3.993-.63a6.238 6.238 0 0 1 2.997.261c2.768.95 3.337 4.614.987 6.358l-2.059 1.527a4.984 4.984 0 0 1-3.47.957l-19-1.916a7.508 7.508 0 0 1-2.037-.5l-10.21-4.085c-1.857-.743-2.005-3.316-.245-4.267a4.05 4.05 0 0 1 2.277-.472L45 17l8.553 1.71c2.61.523 5.293.577 7.923.162Z" fill="#B34F23"/></g><circle cx="7" cy="31" r="5.5" fill="#D9D9D9" stroke="#3F060D" stroke-width="3"/><rect x="8.409" y="36.341" width="3.365" height="11" rx="1.682" transform="rotate(-30 8.41 36.341)" fill="#3F060D"/><circle cx="16" cy="46" r="5" fill="#009DFF"/></svg>