<svg width="93" height="71" fill="none" xmlns="http://www.w3.org/2000/svg"><path d="M47.434 12.869a7.194 7.194 0 0 1 9.202-.084l13.772 11.246a23.959 23.959 0 0 1 4.329 4.613c7.864 10.986.415 26.315-13.081 26.922L52 56l-8.79-.395c-13.716-.617-21.17-16.31-12.983-27.331a24.107 24.107 0 0 1 3.767-4.017l13.44-11.388Z" fill="#F90"/><path d="M40.646 35.475a2.883 2.883 0 0 1 5.707 0l.152 1.06a3.035 3.035 0 1 1-6.01 0l.151-1.06ZM62.354 35.475a2.883 2.883 0 0 0-5.707 0l-.152 1.06a3.035 3.035 0 1 0 6.01 0l-.151-1.06Z" fill="#3F060D"/><path d="M47 42v0a3.5 3.5 0 0 0 3.5 3.5h1A3.5 3.5 0 0 0 55 42v0" stroke="#3F060D" stroke-width="2" stroke-linecap="round"/><circle cx="65.5" cy="45.5" r="3.5" fill="#FD613D"/><circle cx="37.5" cy="45.5" r="3.5" fill="#FD613D"/><path d="M30 22.5c1.167-1 4.8-2.8 10-2 6.5 1 16 5 23.5 4 6-.8 9.833-4 11-5.5" stroke="#3F060D" stroke-width="10" stroke-linecap="round"/><path d="M38.632 7.698 36 19.846l33.5 3.23-4.559-16.184c-1.012-3.594-5.026-5.4-8.387-3.775l-1.966.95a6 6 0 0 1-4.312.353l-4.08-1.205a6 6 0 0 0-7.564 4.483Z" fill="#3F060D"/><mask id="mask0_19_1072" style="mask-type:alpha" maskUnits="userSpaceOnUse" x="36" y="2" width="33" height="22"><path d="M38.632 7.698 36 19.846l6.003.393c2.657.173 5.288.63 7.848 1.361l1.168.334A33.154 33.154 0 0 0 69 22L64.9 6.966c-.988-3.621-5.021-5.457-8.4-3.823l-1.912.925a6 6 0 0 1-4.312.352l-4.08-1.205a6 6 0 0 0-7.564 4.483Z" fill="#B34F23"/></mask><g mask="url('#mask0_19_1072')"><path d="m63.476 18.872 3.993-.63a6.238 6.238 0 0 1 2.997.261c2.768.95 3.337 4.614.987 6.358l-2.059 1.527a4.984 4.984 0 0 1-3.47.957l-19-1.916a7.508 7.508 0 0 1-2.037-.5l-10.21-4.085c-1.857-.743-2.005-3.316-.245-4.267a4.05 4.05 0 0 1 2.277-.472L47 17l8.553 1.71c2.61.523 5.293.577 7.923.162Z" fill="#B34F23"/></g><circle cx="8.573" cy="61.699" r="5.5" transform="rotate(-105 8.573 61.7)" fill="#D9D9D9" stroke="#3F060D" stroke-width="3"/><rect x="13.368" y="58.956" width="3.365" height="11" rx="1.682" transform="rotate(-135 13.368 58.956)" fill="#3F060D"/><circle cx="20.733" cy="49.124" r="5" transform="rotate(-105 20.733 49.124)" fill="#F90"/></svg>