<svg width="87" height="58" viewBox="0 0 87 58" fill="none" xmlns="http://www.w3.org/2000/svg">
<path d="M41.4342 14.8689C44.0802 12.6268 47.9491 12.5915 50.6355 14.7851L64.408 26.0309C66.0485 27.3704 67.5042 28.9215 68.7369 30.6436V30.6436C76.6009 41.6295 69.1523 56.9592 55.6555 57.5659L46 58L37.2102 57.6049C23.4944 56.9883 16.0396 41.2955 24.2268 30.274V30.274C25.3251 28.7955 26.5891 27.4478 27.9942 26.2572L41.4342 14.8689Z" fill="#009DFF"/>
<path d="M57.166 44.8159C57.0203 44.2724 57.0966 43.6934 57.3779 43.2062L58.1673 41.8388C58.2697 41.6614 58.4965 41.6007 58.6739 41.7031L60.0413 42.4925C60.5285 42.7738 60.884 43.2372 61.0297 43.7806L61.0611 43.8978C61.3469 44.9647 60.7138 46.0614 59.6468 46.3473V46.3473C58.5799 46.6332 57.4832 46 57.1974 44.9331L57.166 44.8159Z" fill="#00FFFF"/>
<path d="M35.4127 44.8159C35.5583 44.2724 35.482 43.6934 35.2007 43.2062L34.4113 41.8388C34.3089 41.6614 34.0821 41.6007 33.9047 41.7031L32.5373 42.4925C32.0501 42.7738 31.6946 43.2372 31.549 43.7806L31.5176 43.8978C31.2317 44.9647 31.8648 46.0614 32.9318 46.3473V46.3473C33.9987 46.6332 35.0954 46 35.3813 44.9331L35.4127 44.8159Z" fill="#00FFFF"/>
<path d="M34.6464 33.4749C34.8493 32.0548 36.0655 31 37.5 31V31C38.9345 31 40.1507 32.0548 40.3536 33.4749L40.505 34.5352C40.7663 36.3639 39.3473 38 37.5 38V38C35.6527 38 34.2337 36.3639 34.495 34.5352L34.6464 33.4749Z" fill="#3F060D"/>
<path d="M57.3536 33.4749C57.1507 32.0548 55.9345 31 54.5 31V31C53.0655 31 51.8493 32.0548 51.6464 33.4749L51.495 34.5352C51.2337 36.3639 52.6527 38 54.5 38V38C56.3473 38 57.7663 36.3639 57.505 34.5352L57.3536 33.4749Z" fill="#3F060D"/>
<path d="M42 44V44C42 41.7909 43.7909 40 46 40V40C48.2091 40 50 41.7909 50 44V44" stroke="#3F060D" stroke-width="2" stroke-linecap="round"/>
<path d="M7.42463 28.6129C4.12479 30.5181 4.12479 35.281 7.42463 37.1861V37.1861C10.7245 39.0913 14.8493 36.7098 14.8493 32.8995V32.8995C14.8493 29.0892 10.7245 26.7077 7.42463 28.6129V28.6129Z" fill="#009DFF"/>
<path d="M24 22.5C25.1667 21.5 28.8 19.7 34 20.5C40.5 21.5 50 25.5 57.5 24.5C63.5 23.7 67.3333 20.5 68.5 19" stroke="#3F060D" stroke-width="10" stroke-linecap="round"/>
<path d="M32.632 7.69842L30 19.8462L63.5 23.0769L58.9412 6.89171C57.9289 3.29795 53.9154 1.49147 50.5541 3.11671L48.5876 4.06751C47.2443 4.71704 45.7071 4.84272 44.2761 4.42002L40.1957 3.21472C36.8504 2.22659 33.3706 4.28941 32.632 7.69842Z" fill="#3F060D"/>
<mask id="mask0_14_842" style="mask-type:alpha" maskUnits="userSpaceOnUse" x="30" y="2" width="33" height="22">
<path d="M32.632 7.69842L30 19.8462L36.0034 20.2387C38.6602 20.4124 41.291 20.8689 43.8511 21.6003L45.0186 21.9339C50.8919 23.612 57.1146 23.6348 63 22L58.8999 6.96612C57.9122 3.34456 53.879 1.50907 50.4995 3.14312L48.5876 4.06751C47.2443 4.71704 45.7071 4.84272 44.2761 4.42002L40.1957 3.21472C36.8504 2.22659 33.3706 4.28941 32.632 7.69842Z" fill="#B34F23"/>
</mask>
<g mask="url(#mask0_14_842)">
<path d="M57.4763 18.8722L61.4687 18.2418C62.4743 18.083 63.5034 18.1727 64.4664 18.5031C67.2343 19.4527 67.8029 23.1169 65.4529 24.8606L63.394 26.3884C62.3968 27.1283 61.1594 27.4694 59.924 27.3448L40.9239 25.4293C40.2248 25.3588 39.5391 25.1906 38.8869 24.9295L28.6775 20.8441C26.82 20.1007 26.6722 17.5282 28.4324 16.577C29.1288 16.2006 29.9203 16.0365 30.709 16.1051L41 17L49.5526 18.7105C52.1635 19.2327 54.8463 19.2874 57.4763 18.8722Z" fill="#B34F23"/>
</g>
</svg>
